#!OML:ASF F:\VICON\USERDATA\INSTALL\rory3\rory3.ASF
:FULLY-SPECIFIED
:DEGREES
193
root 0.547484 17.91 4.89841 -7.57691 -1.59919 3.46439
lowerback 18.7789 -0.349823 -3.63251
upperback 2.53493 -1.07228 1.50408
thorax -7.68063 -0.393365 3.96525
lowerneck -5.08093 -3.25648 -4.69389
upperneck 28.7527 -3.19565 -2.81728
head 10.0032 -2.28611 -0.502361
rclavicle -9.44227e-015 1.03368e-014
rhumerus -56.8793 -26.6833 -57.5078
rradius 99.7422
rwrist -52.8195
rhand -15.5075 -6.72409
rfingers 7.12502
rthumb 10.6752 -36.4329
lclavicle -9.44227e-015 1.03368e-014
lhumerus -54.1689 20.1279 66.9114
lradius 35.1465
lwrist 4.27492
lhand -8.92009 50.1564
lfingers 7.12502
lthumb 17.0234 79.4305
rfemur -18.1173 -2.20664 18.1549
rtibia 75.1473
rfoot 1.42171 -15.6968
rtoes 16.7735
lfemur -7.55409 -6.18041 -28.2332
ltibia 29.4169
lfoot -9.63036 5.30639
ltoes -2.65387
194
root 0.556731 17.9013 5.07743 -7.4711 -1.25092 4.20507
lowerback 18.8804 -0.42694 -4.31679
upperback 2.39258 -1.33448 1.31755
thorax -7.85468 -0.49444 4.22512
lowerneck -5.99051 -3.08892 -4.02267
upperneck 29.4306 -2.81191 -3.49908
head 10.4006 -2.12874 -0.85037
rclavicle -1.5704e-014 1.11319e-014
rhumerus -56.4115 -26.6746 -57.6372
rradius 101.12
rwrist -49.9761
rhand -15.2077 -6.18974
rfingers 7.12502
rthumb 10.9644 -35.8834
lclavicle -1.5704e-014 1.11319e-014
lhumerus -53.8954 19.8034 67.3212
lradius 35.9484
lwrist 4.78248
lhand -9.23225 50.3771
lfingers 7.12502
lthumb 16.7229 79.6768
rfemur -19.4519 -2.65228 17.3178
rtibia 74.9207
rfoot -0.185291 -15.1407
rtoes 15.944
lfemur -6.80583 -6.20115 -29.2195
ltibia 29.0707
lfoot -10.2071 5.10614
ltoes -2.82302
195
root 0.548864 17.8968 5.27215 -7.7799 -1.40969 3.69478
lowerback 19.1681 -0.48337 -4.0332
upperback 2.40069 -1.33909 1.57775
thorax -8.00222 -0.496999 4.35661
lowerneck -5.98981 -2.99683 -3.98915
upperneck 29.5294 -2.62379 -3.72535
head 10.434 -2.06657 -0.919275
rclavicle -1.22253e-014 5.56597e-015
rhumerus -55.8637 -26.2106 -57.8355
rradius 102.597
rwrist -47.0104
rhand -15.4585 -5.31904
rfingers 7.12502
rthumb 10.7225 -35.0254
lclavicle -1.22253e-014 5.56597e-015
lhumerus -53.9655 19.0424 68.1351
lradius 37.4616
lwrist 5.82335
lhand -9.69908 50.9269
lfingers 7.12502
lthumb 16.2734 80.264
rfemur -20.1519 -2.40179 18.2303
rtibia 74.2857
rfoot -1.76372 -15.0667
rtoes 14.5792
lfemur -5.66526 -5.98707 -28.729
ltibia 28.9053
lfoot -10.8637 5.05213
ltoes -2.6277
196
root 0.562363 17.8848 5.4688 -7.67739 -0.808679 4.77219
lowerback 18.8406 -0.617446 -4.95014
upperback 2.37558 -1.71547 1.29257
thorax -7.79355 -0.661103 4.65356
lowerneck -5.17636 -2.94439 -4.29018
upperneck 28.8806 -2.62459 -3.51488
head 10.0448 -2.05972 -0.763829
rclavicle -1.98785e-016 1.27222e-014
rhumerus -55.0223 -25.8804 -58.2637
rradius 103.773
rwrist -43.6236
rhand -16.3324 -4.51431
rfingers 7.12502
rthumb 9.87948 -34.2625
lclavicle -1.98785e-016 1.27222e-014
lhumerus -53.9315 18.1875 68.9576
lradius 39.166
lwrist 6.70169
lhand -10.3219 51.0848
lfingers 7.12502
lthumb 15.6737 80.47
rfemur -21.2378 -3.0559 16.9231
rtibia 73.6795
rfoot -3.20907 -14.4135
rtoes 14.5492
lfemur -4.88842 -6.19135 -30.1583
ltibia 28.7306
lfoot -11.3877 5.00687
ltoes -3.03956
197
root 0.567328 17.871 5.64432 -7.52471 -0.858912 4.81059
lowerback 18.5641 -0.625442 -5.00005
upperback 2.44865 -1.71999 1.3055
thorax -7.5607 -0.671731 4.68518
lowerneck -6.70108 -2.71795 -3.36879
upperneck 29.774 -2.15238 -4.20762
head 10.6462 -1.84626 -1.16701
rclavicle 1.14301e-014 -3.97569e-015
rhumerus -53.567 -26.2609 -58.7879
rradius 103.969
rwrist -39.0352
rhand -16.126 -3.62312
rfingers 7.12502
rthumb 10.0786 -33.3618
lclavicle 1.14301e-014 -3.97569e-015
lhumerus -52.8361 17.802 69.4741
lradius 39.0669
lwrist 6.94024
lhand -10.7964 50.9591
lfingers 7.12502
lthumb 15.2166 80.3796
rfemur -22.4838 -2.9585 17.1176
rtibia 72.7885
rfoot -4.03208 -14.1334
rtoes 15.326
lfemur -4.40001 -6.04827 -30.2679
ltibia 28.723
lfoot -11.9257 5.02212
ltoes -3.90626
